<?xml version="1.0"?>
<svg width="640" height="480" xmlns="http://www.w3.org/2000/svg" xmlns:svg="http://www.w3.org/2000/svg">
 <!-- Created with SVG-edit - http://svg-edit.googlecode.com/ -->
 <g>
  <title>Layer 1</title>
  <path d="m3,350c1.757167,0 2.652752,0.012115 3.516,0c0.961118,-0.013519 1.402866,-0.06192 2.0465,-0.125c0.899121,-0.088104 2.105865,-0.216156 3.6735,-0.386993c4.431229,-0.48288 7.39847,-0.827728 10.942667,-1.194672c4.169636,-0.431702 9.022005,-0.891144 14.613001,-1.334991c6.376842,-0.506256 13.599251,-1.006958 21.723,-1.425018c19.146259,-0.98526 30.275219,-1.282227 42.425335,-1.578644c13.13826,-0.320526 27.232986,-0.541504 42.247498,-0.663025c15.898895,-0.128662 32.648682,-0.163208 50.212494,-0.03299c37.434525,0.277527 57.190857,0.723785 77.368011,1.185333c20.310547,0.4646 40.463196,1.022369 60.169495,1.6185c18.972382,0.573914 36.920197,1.167633 53.554504,1.75351c28.175537,0.992401 39.243591,1.424133 48.482666,1.797333c7.761871,0.313507 14.396698,0.60611 20.254486,0.907501c5.434174,0.279602 10.793365,0.599335 16.429504,0.952484c13.50885,0.846466 21.978455,1.398346 31.511993,1.998657c10.329468,0.650452 21.187988,1.330536 32.308533,2.028015c11.115479,0.697174 21.959167,1.376038 32.263489,2.028015c17.924316,1.134094 25.085876,1.590607 31.093323,2.001312c5.042786,0.344757 9.307312,0.656677 12.976501,0.991516c3.268005,0.298218 6.317261,0.634918 9.331482,1.036499c6.696228,0.892181 10.686523,1.531311 15.102661,2.198669c4.727234,0.714386 9.653625,1.47049 14.670044,2.243988c4.996887,0.770508 9.863342,1.526001 14.48999,2.243988c8.093323,1.255981 11.373779,1.762726 14.175964,2.197357c2.416504,0.374817 4.539307,0.705383 6.459045,1.016998c1.810913,0.293945 3.603638,0.595673 5.468994,0.927002c4.324951,0.768219 6.935852,1.262177 9.825317,1.802643c3.094177,0.578766 6.318909,1.187958 9.601501,1.812012c3.268066,0.621307 6.448181,1.228821 9.466492,1.812012c5.26355,1.016998 7.381714,1.433075 9.166687,1.79599c1.502869,0.305573 2.768005,0.582672 3.846008,0.829498l0.937988,0.231842l0.846008,0.227814l0.802002,0.234833" id="svg_1" stroke-width="5" stroke="#000000" fill="none"/>
  <path d="m467,6c0,1.8 -0.060303,2.705694 0.036011,3.4035c0.080719,0.584763 0.416931,1.612675 0.646667,2.359167c0.638458,2.074465 1.085968,3.4291 1.59198,4.972c0.553101,1.686508 1.146362,3.470339 1.766998,5.306999c0.624695,1.848684 1.243042,3.664255 1.857025,5.397001c1.086639,3.066576 1.563416,4.31838 2.00531,5.402664c0.397247,0.974705 0.799896,1.873219 1.221008,2.742001c0.434662,0.896755 0.934082,1.851288 1.490997,2.922001c1.384216,2.661224 2.241486,4.328163 3.196014,6.200001c1.034546,2.028786 2.122101,4.171631 3.250488,6.377998c1.139618,2.22831 2.26767,4.433556 3.385498,6.558002c2.035034,3.867634 2.951447,5.515995 3.799988,6.996002c0.783173,1.365974 1.551697,2.643967 2.314514,3.883499c0.769165,1.24984 1.586609,2.540085 2.449493,3.928497c1.996338,3.212166 3.147705,5.121002 4.40802,7.217331c1.354858,2.253578 2.7789,4.640663 4.267487,7.125c1.531342,2.555687 3.087677,5.154457 4.672485,7.755005c3.12561,5.128822 4.667664,7.582581 6.170654,9.949333c1.44696,2.27845 2.849731,4.448547 4.198547,6.503998c1.27417,1.941719 2.479492,3.75351 3.613464,5.424004c1.979919,2.916656 2.839172,4.136879 3.614685,5.223999c0.702881,0.985268 1.363831,1.885773 2.000977,2.726997c0.61908,0.817368 1.251831,1.626404 1.911011,2.457001c1.459106,1.838547 2.300354,2.881454 3.201355,4.003998c0.945374,1.177826 1.919189,2.387085 2.908508,3.601501c0.97998,1.202911 1.934875,2.370605 2.863464,3.466507c1.644226,1.940506 2.355957,2.724747 2.993347,3.389328c0.555786,0.579498 1.064392,1.06871 1.539001,1.477493c0.430237,0.370529 0.851807,0.690979 1.268982,0.982498c0.847595,0.592255 1.319458,0.891495 1.814697,1.214676c0.520386,0.339584 1.067444,0.688049 1.645508,1.031998c0.596497,0.354919 1.216431,0.708878 1.870483,1.031998c1.344482,0.664185 2.063904,0.934479 2.789307,1.194672c0.724365,0.259842 1.452576,0.487411 2.173523,0.690002c0.701843,0.197235 1.383728,0.368805 2.038513,0.509995c1.187317,0.256012 1.717957,0.33667 2.216003,0.404007c0.484375,0.065491 0.97699,0.111893 1.495483,0.148499c0.562866,0.039734 1.190308,0.069153 1.900513,0.1035c1.7453,0.084396 2.812622,0.139221 4.003967,0.199997c1.299316,0.066284 2.690491,0.135666 4.15802,0.196503c1.527161,0.063309 3.09845,0.122284 4.697998,0.151489c3.218384,0.058746 4.808777,0.033752 6.378662,0c1.550171,-0.03334 3.080139,-0.089066 4.590027,-0.151489c1.490112,-0.0616 2.959839,-0.13414 4.409973,-0.196503c2.839783,-0.122116 4.228638,-0.16391 5.589355,-0.198669c1.324585,-0.033844 2.605347,-0.058014 3.833984,-0.084c1.16864,-0.024704 2.269653,-0.044678 3.294006,-0.084c1.789917,-0.06871 2.543091,-0.128693 3.211975,-0.202667c0.604858,-0.066895 1.159851,-0.153702 1.681519,-0.255005c0.509033,-0.098862 1.017639,-0.219894 1.546509,-0.345001c1.182739,-0.27977 1.864563,-0.436462 2.601318,-0.595993c0.773926,-0.167572 1.570374,-0.333435 2.372986,-0.496506c0.792053,-0.160919 1.558289,-0.313248 2.28302,-0.451492c1.257935,-0.239944 1.764771,-0.328537 2.190674,-0.398666c0.35321,-0.058167 0.643677,-0.101242 0.880493,-0.128998c0.191284,-0.022415 0.346863,-0.035019 0.475525,-0.039001c0.211914,-0.006546 0.311829,-0.001801 0.410645,-0.003998c0.096802,-0.002151 0.190674,-0.009338 0.280518,-0.019501l0.084839,-0.015167l0.078796,-0.021164l0.071838,-0.028168" id="svg_2" stroke-width="5" stroke="#000000" fill="none"/>
  <path d="m434,57c1.825348,0 2.833344,0 3.695496,0c0.90451,0 1.721863,-0.089478 2.329834,-0.574665c0.624481,-0.498375 1.631683,-0.425491 0.774658,-0.425335c-0.90033,0.000168 -1.635468,0.072296 -2.567993,0.568001c-0.750519,0.398956 -1.191467,0.800926 -2.268005,1.265331c-0.703125,0.303329 -1.799866,0.661079 -2.583984,1.018669c-0.444794,0.202839 -1.379486,0.649086 -1.853333,0.871998c-0.905701,0.426079 -2.018433,0.917263 -2.82135,1.210667c-0.781189,0.285469 -1.873962,0.727707 -2.354828,0.951c-1.128387,0.52396 -1.73999,0.834057 -2.371338,1.156002c-0.639343,0.326023 -1.273041,0.652294 -1.876495,0.993c-1.589905,0.897652 -2.005157,1.19828 -2.793335,1.736c-0.806519,0.550247 -1.249298,0.856483 -1.754669,1.167999c-1.210358,0.746086 -1.966217,1.150558 -2.797333,1.597336c-0.890778,0.478844 -1.830963,0.967361 -2.798981,1.463997c-0.975983,0.50071 -1.945526,0.990311 -2.889008,1.463997c-1.735107,0.871132 -2.499542,1.249222 -3.197327,1.602669c-0.65152,0.330009 -1.271423,0.649475 -1.872009,0.974998c-0.604767,0.327797 -1.224854,0.677429 -1.872009,1.065002c-1.469391,0.879997 -2.302002,1.420311 -3.214661,2.008003c-0.985809,0.634789 -2.034149,1.321396 -3.142487,2.051994c-1.16507,0.767998 -2.378754,1.574089 -3.637512,2.412003c-2.634155,1.753448 -3.995819,2.663002 -5.373322,3.581337c-1.377502,0.918327 -2.740021,1.826668 -4.07251,2.714996c-1.287506,0.858337 -2.515015,1.676666 -3.667511,2.445c-2.019989,1.346664 -2.863129,1.909103 -3.606659,2.403999c-0.663177,0.441406 -1.266235,0.84198 -1.829987,1.213501c-0.542938,0.357796 -1.08606,0.713264 -1.650024,1.078499c-1.26532,0.819435 -2.00592,1.290901 -2.815979,1.813332c-0.875305,0.564507 -1.80722,1.169121 -2.783997,1.816505c-1.020691,0.676491 -2.074738,1.383202 -3.144012,2.1315c-2.200592,1.540031 -3.292725,2.359573 -4.38266,3.189331c-1.08844,0.828606 -2.153351,1.673332 -3.202515,2.512497l-1.02417,0.834167l-0.994141,0.824165l-0.959167,0.809174" id="svg_3" stroke-width="5" stroke="#000000" fill="none"/>
  <path d="m481,127c-1,1 -1.646454,1.318207 -2.289337,1.919998c-0.482452,0.451614 -1.482178,0.957214 -2.068665,1.495163c-0.650452,0.596588 -0.968109,0.917374 -1.589996,1.53418c-1.015472,1.007187 -1.472015,1.470657 -2.052002,2.050659c-0.372498,0.372498 -0.820007,0.820007 -2,2c-0.756012,0.755997 -1.608002,1.608002 -2.532013,2.531998c-0.971985,0.971985 -1.967987,1.968002 -2.963989,2.964005c-0.971985,0.972 -1.896088,1.895889 -3.503998,3.503998c-0.64386,0.643951 -1.19162,1.191071 -1.663513,1.667999c-0.422668,0.427155 -0.816895,0.830795 -1.204498,1.236008c-0.408173,0.426727 -0.855896,0.902817 -1.965332,2.095993c-0.704102,0.757248 -1.506165,1.624451 -2.399994,2.585999c-0.972809,1.046494 -2.015381,2.165207 -3.119995,3.341995c-1.151978,1.227264 -2.339325,2.495041 -4.813324,5.072006c-1.252106,1.30423 -2.523376,2.608582 -3.817505,3.917999c-1.312469,1.327972 -2.657928,2.669159 -4.042511,4.026001c-1.416992,1.388596 -2.875366,2.809296 -5.973328,5.722672c-1.622284,1.52562 -3.306061,3.073853 -5.020508,4.661987c-1.74292,1.614517 -3.500336,3.254669 -5.263489,4.914001l-1.757172,1.675339l-1.740173,1.687332" id="svg_4" stroke-width="5" stroke="#000000" fill="none"/>
  <path d="m555,182c0.995483,1.757172 1,2.657166 1,3.404495c0,1.006165 0,1.762177 0,2.452835c0,1.475998 0.000671,2.116501 -0.001343,2.839996c-0.002258,0.809509 -0.007446,1.708023 -0.01947,2.698502c-0.013123,1.085541 -0.032349,2.269104 -0.064514,3.553513c-0.072266,2.884232 -0.133728,4.489594 -0.201355,6.207993c-0.072205,1.83461 -0.157959,3.788086 -0.255005,5.863495c-0.102844,2.200607 -0.217773,4.529114 -0.344971,6.98851c-0.27533,5.324234 -0.433044,8.191269 -0.600037,11.181335c-0.172974,3.096283 -0.35675,6.281525 -0.554993,9.538498c-0.20166,3.312363 -0.412415,6.662842 -0.644958,10.033493c-0.464905,6.738403 -0.731018,10.070282 -0.99469,13.358673c-0.259033,3.230927 -0.522644,6.389343 -0.776978,9.462006l-0.244324,2.972656l-0.230347,2.858673l-0.212341,2.730652" id="svg_5" stroke-width="5" stroke="#000000" fill="none"/>
  <path stroke="#000000" transform="rotate(-145.59078979492188 346.66912841796875,307.7653503417968) " d="m351.999817,344.380676c-0.691223,-1.333344 -0.792358,-2.07019 -0.967712,-3.166656c-0.127502,-0.797394 -0.298981,-1.347961 -0.455658,-2.23468c-0.158875,-0.8992 -0.215912,-1.661011 -0.276489,-2.182678c-0.077393,-0.666443 -0.185394,-1.512756 -0.334656,-2.573975c-0.184937,-1.314941 -0.728058,-4.84256 -1.093658,-7.115173c-0.417084,-2.592773 -0.888214,-5.461792 -1.38855,-8.569519c-0.531708,-3.302582 -1.081879,-6.759766 -1.62738,-10.333496c-0.556152,-3.643585 -1.609558,-10.98819 -2.078644,-14.612488c-0.459686,-3.551788 -0.872498,-7.020386 -1.244202,-10.385986c-0.35788,-3.240509 -0.663605,-6.344025 -0.945618,-9.288025l-0.24881,-2.767975" id="svg_6" stroke-width="5" fill="none"/>
  <path d="m72,314c0,-1.528015 0.086517,-0.695618 -0.00267,0.20401c-0.085678,0.864166 -0.434898,1.562286 -0.848,2.471985c-0.295029,0.649658 -0.612137,1.260468 -1.057495,2.497498c-0.269302,0.748016 -0.507019,1.479431 -0.925171,2.493164c-0.267708,0.649017 -0.585655,1.373779 -0.93,2.160004c-0.362267,0.827118 -0.737167,1.673126 -1.110001,2.52002c-0.363823,0.826447 -0.717163,1.608887 -1.293327,2.986664c-0.230377,0.550903 -0.577118,1.41568 -0.770836,2.083313c-0.253754,0.874573 -0.503746,2.011719 -0.630501,2.487335c-0.279533,1.048859 -0.431999,1.596008 -0.581333,2.144012l-0.282665,1.048004l-0.325001,1.274994l-0.171001,0.812988" id="svg_7" stroke-linecap="null" stroke-linejoin="null" stroke-dasharray="null" stroke-width="5" stroke="#000000" fill="none"/>
  <path d="m80,319c1,1 1,1.799988 1,2.700012c0,0.862488 0,1.799988 0,2.65799c0,0.641998 0,1.589996 0,2.589996c0,0.910004 0,1.816498 0,2.76001c0,0.723999 0,1.496002 0,2.691498l0,0.786987l0,0.751007l0,1.0065" id="svg_8" stroke-linecap="null" stroke-linejoin="null" stroke-dasharray="null" stroke-width="5" stroke="#000000" fill="none"/>
  <path d="m105,320c0,1.799988 0.169167,2.55603 0.610664,3.241333c0.543686,0.843933 0.593811,1.746857 0.684837,2.231842c0.196205,1.04538 0.276924,1.58429 0.419167,2.624146c0.174156,1.273132 0.263771,2.139526 0.28083,2.861511c0.029472,1.247498 0.004501,1.661163 0.004501,2.567841c0,0.946655 0.007721,1.853363 -0.000168,2.966156c-0.005302,0.748566 -0.166496,1.840515 -0.352501,2.512512l-0.222,0.743988" id="svg_9" stroke-linecap="null" stroke-linejoin="null" stroke-dasharray="null" stroke-width="5" stroke="#000000" fill="none"/>
  <path d="m124,321c1,1 1.014366,1.849487 1.520836,2.5c0.602684,0.774109 1.159782,1.258698 1.645828,2.333344c0.35302,0.780548 0.496834,1.256317 0.875008,2.291656c0.205994,0.563965 0.416428,1.155975 0.644989,1.766998c0.723236,1.933411 0.995743,2.590759 1.261505,3.256165c0.266235,0.666595 0.533127,1.33017 0.790497,1.990509c0.253601,0.650665 0.523575,1.281464 1.1185,3.117828c0.183289,0.565765 0.479172,1.640167 0.622009,2.139343c0.264664,0.924896 0.6875,2.104156 1.003494,2.746826l0.496506,0.773987l0.451492,0.594025" id="svg_10" stroke-linecap="null" stroke-linejoin="null" stroke-dasharray="null" stroke-width="5" stroke="#000000" fill="none"/>
  <path d="m124,287c-0.166664,-1.833344 -0.645042,-2.452667 -1.366165,-2.947327c-0.817818,-0.560974 -1.636711,-0.413757 -2.383171,-0.62735c-1.105995,-0.316498 -1.69548,-0.406036 -2.570496,-0.477997c-1.51268,-0.12442 -2.214935,-0.167603 -3.004166,-0.232666c-0.855446,-0.070526 -1.754898,-0.148193 -2.676003,-0.235504c-0.92157,-0.087341 -1.821663,-0.175201 -2.676003,-0.280487c-1.492554,-0.183929 -2.090271,-0.296509 -2.605331,-0.393341c-0.457588,-0.086029 -1.300537,-0.259827 -2.226669,-0.276672c-0.557381,-0.010132 -1.993225,0.128876 -2.913498,0.25769c-1.05201,0.147247 -2.210701,0.342194 -3.454498,0.578979c-1.31337,0.250031 -2.670799,0.537415 -4.0485,0.867004c-1.386421,0.331665 -4.080902,1.084625 -5.346664,1.510681c-1.223595,0.411865 -2.394806,0.860382 -3.523506,1.328979c-1.105644,0.459015 -2.179451,0.944763 -3.235497,1.437012c-1.049294,0.489105 -3.136147,1.49173 -4.190834,1.99115c-1.059982,0.501923 -2.124001,1.001556 -3.182999,1.510529c-1.055672,0.507385 -2.101974,1.01886 -3.128998,1.546478c-1.01564,0.52179 -2.974457,1.597137 -3.901169,2.164825c-0.906624,0.555359 -1.771973,1.130524 -2.572502,1.746002c-0.777817,0.598022 -1.496857,1.228241 -2.122498,1.90802c-0.607773,0.66037 -1.579922,2.105499 -1.8965,2.889648c-0.316338,0.783539 -0.505466,1.634003 -0.537003,2.516998c-0.033047,0.925323 0.105099,1.913727 0.399002,2.931c0.318794,1.103424 1.461884,3.474731 2.266499,4.735504c0.869228,1.362 1.913769,2.743439 3.118504,4.117523c1.26532,1.443176 2.690338,2.858429 4.2705,4.207489c1.631721,1.393066 5.313576,3.942078 7.343994,5.052673c2.070282,1.132385 4.258453,2.125458 6.517502,3.010498c2.276581,0.891907 4.609978,1.659821 6.967499,2.326477c2.34304,0.662567 7.007286,1.69928 9.291832,2.084839c2.230621,0.376465 4.419945,0.657379 6.558006,0.846008c2.077057,0.183258 4.098328,0.278992 6.054001,0.287994c1.887398,0.008698 5.445541,-0.18515 7.102829,-0.391327c1.589783,-0.197784 3.110268,-0.473602 4.552498,-0.846008c1.400009,-0.361511 2.741554,-0.815094 4.012505,-1.367981c1.256516,-0.5466 3.62648,-1.917175 4.742325,-2.727173c1.123596,-0.815613 2.189865,-1.716675 3.214508,-2.659515c1.01918,-0.937805 1.982758,-1.913635 2.908493,-2.893494c0.9048,-0.957703 2.576782,-2.829376 3.355835,-3.710815c0.743561,-0.841278 1.449905,-1.647614 2.121002,-2.421021c0.64151,-0.739319 1.251831,-1.449677 1.833008,-2.132996c0.557434,-0.655396 1.600906,-1.8974 2.088654,-2.489166c0.469513,-0.569641 0.916428,-1.120422 1.32901,-1.660492c0.394547,-0.516479 0.758606,-1.019257 1.076996,-1.51651c0.302582,-0.472565 0.7883,-1.392914 0.950836,-1.845001c0.155624,-0.432831 0.257614,-0.870819 0.289505,-1.306488c0.031799,-0.434479 -0.004593,-0.88028 -0.106506,-1.324493c-0.106674,-0.464966 -0.515366,-1.431396 -0.804337,-1.933167c-0.308975,-0.53653 -0.68454,-1.079895 -1.114502,-1.628998c-0.453278,-0.578888 -0.965225,-1.158386 -1.528488,-1.73703c-0.587173,-0.60321 -1.90834,-1.799683 -2.633835,-2.390137c-0.741119,-0.603149 -1.511871,-1.184967 -2.294998,-1.747528c-0.773651,-0.555756 -1.54303,-1.078888 -2.295013,-1.567474c-0.714905,-0.464478 -2.021439,-1.25882 -2.596832,-1.578674c-0.519684,-0.28891 -1.004776,-0.536499 -1.4655,-0.748505c-0.439163,-0.202087 -0.877411,-0.380554 -1.321487,-0.550507c-0.458572,-0.175507 -1.474442,-0.541656 -2.048676,-0.750824c-0.61911,-0.225525 -1.277344,-0.465515 -1.972504,-0.708008c-0.723145,-0.252258 -1.471527,-0.504395 -2.242493,-0.743988c-0.782379,-0.243164 -2.375565,-0.680328 -3.176338,-0.862183c-0.790009,-0.179413 -1.568687,-0.329834 -2.3265,-0.46048c-0.727936,-0.125488 -1.422661,-0.225342 -2.074501,-0.316498l-0.602829,-0.078186" id="svg_11" stroke-linecap="null" stroke-linejoin="null" stroke-dasharray="null" stroke-width="5" stroke="#000000" fill="none"/>
  <path d="m170,260c-0.878662,-1.221344 -1.355713,-1.971405 -2.202667,-2c-0.767563,-0.025909 -1.802673,0 -2.546661,0c-1.108673,0 -1.834,0 -2.559998,0c-1.118668,0 -2.106674,0 -2.64267,0c-0.548004,0 -1.632004,0 -3.048004,0c-0.690674,0 -1.608093,-0.013092 -2.543167,0.000336c-0.739731,0.01062 -1.635666,0.062531 -2.623505,0.333008c-0.729965,0.19986 -1.473892,0.528748 -2.243988,0.888c-0.795517,0.371124 -1.992172,0.973846 -2.389343,1.18399c-0.805908,0.426361 -1.613907,0.920044 -2,1.223328c-1.247757,0.980072 -1.612488,1.446747 -1.998657,1.914001c-0.818146,0.989929 -1.187531,1.556854 -1.565338,2.136017c-0.386063,0.591827 -0.769363,1.20163 -1.46933,2.487976c-0.354202,0.650909 -0.689011,1.322754 -0.996002,2.022003c-0.314728,0.716858 -0.60347,1.472809 -0.852005,2.274017c-0.259613,0.836914 -0.517075,1.726685 -0.818665,3.703979c-0.164551,1.078796 -0.256088,2.223114 -0.287994,3.411011c-0.032776,1.220581 0.00531,2.467194 0.143997,3.71701c0.139267,1.255035 0.278244,2.534485 1.143997,4.871979c0.426422,1.151337 1.030807,2.216614 1.696503,3.211517c0.654175,0.977692 1.386917,1.870178 2.155502,2.680481c0.740311,0.780487 1.477173,1.506561 2.981323,2.608002c0.663757,0.486053 1.31958,0.870087 1.951508,1.176025c0.594543,0.287842 1.189865,0.505768 1.780502,0.671997c0.584137,0.164398 1.183426,0.286316 2.434662,0.485321c0.663376,0.10553 1.353851,0.201538 2.067001,0.282013c0.729568,0.082336 1.474136,0.146698 2.229004,0.173981c0.759995,0.027466 1.528656,0.06131 3.037323,-0.12265c0.749115,-0.091339 1.486755,-0.260315 2.205002,-0.489014c0.722473,-0.230042 1.431595,-0.530548 2.115005,-0.902985c0.697556,-0.380157 1.407928,-0.802734 2.679993,-1.941345c0.671204,-0.6008 1.292847,-1.300537 1.896011,-2.047485c0.618851,-0.766388 1.201782,-1.588989 1.751999,-2.452515c0.557465,-0.874908 1.103806,-1.772217 2.018661,-3.666656c0.456253,-0.944794 0.854355,-1.912811 1.210495,-2.890503c0.354538,-0.973267 0.661057,-1.959106 0.913498,-2.953522c0.251205,-0.989563 0.488876,-1.983398 0.709335,-3.989319c0.109512,-0.996429 0.139664,-1.993317 0.133499,-2.977509c-0.006073,-0.96936 -0.070999,-1.918335 -0.145493,-2.842499l-0.096497,-0.894165l-0.115509,-0.859161" id="svg_12" stroke-linecap="null" stroke-linejoin="null" stroke-dasharray="null" stroke-width="5" stroke="#000000" fill="none"/>
  <path d="m140,259c0,-1.700012 0.055313,-2.602753 -0.020828,-3.583328c-0.084625,-1.089828 -0.262207,-1.752853 -0.40451,-2.518005c-0.148315,-0.797516 -0.333481,-1.556381 -0.489334,-2.766663c-0.089081,-0.691772 -0.084656,-1.524002 -0.085327,-2.781342c-0.00029,-0.538666 0,-1.119324 0,-2.350662c0,-0.622665 0,-1.231339 0,-2.833328c0,-0.772003 0,-1.764008 0,-2.709335c0,-0.708008 0,-1.451996 0,-2.647507c0,-0.976501 0,-1.635162 0,-2.643158c0,-0.862167 0,-1.766678 0,-2.666672c0,-0.899994 -0.198074,-1.822403 0.001328,-2.698669c0.183029,-0.804306 1.278305,-1.010468 2.098511,-0.579834c0.643433,0.33783 0.93396,1.461441 1.564163,1.87851c0.772842,0.511475 1.657578,0.542496 2.31517,1.441666c0.511963,0.700027 0.735336,1.458267 1.170166,2.207657c0.528564,0.910919 0.799454,1.773026 1.18399,2.584c0.333405,0.70311 0.864929,1.48082 1.184006,2.069336c0.480698,0.886597 0.864563,1.766479 1.121002,2.583008c0.270828,0.862335 0.474991,1.795578 0.861664,2.535156c0.410263,0.784698 0.309555,1.673553 0.501328,2.592499c0.184875,0.885895 0.980026,1.322128 0.998672,2.186676c0.019379,0.898453 0.615616,1.865601 0.979172,1.179169c0.411743,-0.77742 0.410904,-1.631165 0.736832,-2.449844c0.304535,-0.764923 0.238968,-1.556198 0.367996,-2.346664c0.202972,-1.2435 0.541153,-1.90213 0.916,-2.849335c0.307449,-0.776871 0.601379,-1.561951 0.833328,-2.5c0.199081,-0.805176 0.438797,-1.824738 0.777344,-2.543991c0.374817,-0.796326 0.830093,-1.557724 1.103989,-2.304001c0.353439,-0.963013 0.513687,-1.803833 0.785339,-2.485336c0.38858,-0.974869 0.497742,-1.809814 0.5,-2.768005c0.001724,-0.731995 -0.082413,-1.467819 0.010666,-2.581329c0.082977,-0.992828 0.35022,-1.653595 0.563995,-2.399994c0.316208,-1.10408 0.755554,-1.699646 1.258667,-2.417343c0.487823,-0.695877 0.493301,-1.92244 1.113998,-1.480667c0.665146,0.473404 1.083435,1.302582 1.348175,2.0625c0.208221,0.597672 0.414871,1.535034 0.656326,2.731339c0.155258,0.769226 0.492096,1.83905 0.75351,2.582169c0.146027,0.415085 0.470047,1.306732 0.726669,2.276672c0.261383,0.987976 0.406082,1.993835 0.45816,2.494659c0.103821,0.998566 0.112366,1.5009 0.192505,2.5c0.120438,1.501572 0.197418,2.000565 0.342667,3c0.072708,0.50029 0.246887,1.497116 0.40799,3c0.053436,0.498505 0.116867,1.481735 0.145844,2.416672c0.013611,0.43924 0.020828,1.916656 0.020828,2.677155c0,0.643509 0,1.739502 0,2.526169c0,0.906677 0,1.853333 0,2.316666c0,1.230011 0,2.304672 0,3.027344c0,1.045822 0,1.821335 0,2.869339c0,0.704987 0,1.505005 0,2.53067l0,0.935974" id="svg_13" stroke-linecap="null" stroke-linejoin="null" stroke-dasharray="null" stroke-width="5" stroke="#000000" fill="none"/>
  <path d="m190,179c0,1.800003 0,2.699997 0,3.583328c0,1.083344 0,1.75267 0,2.518005c0,0.797333 0.042618,1.563553 -0.003998,2.773331c-0.030579,0.793579 -0.155273,1.495834 -0.496002,3.125336c-0.158325,0.757202 -0.35141,1.608139 -0.557999,2.531998c-0.217377,0.972137 -0.442291,1.967941 -0.666,2.964005c-0.218292,0.971939 -0.429977,1.894699 -0.776001,3.503998c-0.138397,0.643661 -0.24968,1.193008 -0.341995,1.672501c-0.083527,0.433884 -0.156128,0.848679 -0.31601,1.71666c-0.092911,0.504364 -0.340668,1.777786 -0.506165,2.588837c-0.187653,0.919647 -0.397781,1.924789 -0.622498,2.994003c-0.233597,1.11145 -0.473282,2.242676 -0.712494,3.371994c-0.234131,1.105362 -0.667892,3.15593 -0.857666,4.061508c-0.171509,0.81842 -0.324203,1.553024 -0.46051,2.206497c-0.120041,0.575531 -0.224365,1.076202 -0.316498,1.504501c-0.077362,0.359665 -0.265137,0.946838 -0.355499,0.787506c-0.363144,-0.640259 -0.010666,-1.904007 -0.010666,-2.660172c0,-0.853165 0,-1.780334 0,-2.758499c0,-1.006165 0,-2.017334 0,-3.010498c0,-0.952179 -0.00174,-2.64151 0.000504,-3.340164c0.001968,-0.610672 0.002411,-1.155838 0.031494,-1.656006c0.05574,-0.958725 0.131241,-1.459351 0.223999,-2.00267c0.224121,-1.312881 0.403961,-2.112732 0.602676,-3.007996c0.216522,-0.975525 0.462753,-2.012711 0.745499,-3.093002c0.291702,-1.114502 0.603546,-2.245071 0.97049,-3.363007c0.719467,-2.191925 1.151886,-3.211044 1.596008,-4.178665c0.427933,-0.932373 0.886276,-1.808746 1.371002,-2.625c0.465363,-0.783661 0.946671,-1.51561 1.460999,-2.174988c0.959686,-1.230316 1.485947,-1.738266 2,-2.205338c0.495346,-0.450073 1.009979,-0.850006 1.539001,-1.203003c0.522079,-0.348373 1.065262,-0.660126 1.628998,-0.932999c1.148376,-0.555847 1.769302,-0.777039 2.395996,-1.003998c0.631699,-0.228775 1.271454,-0.43692 1.912506,-0.625504c0.63237,-0.186035 1.256027,-0.353577 1.867493,-0.490494c1.149307,-0.257355 1.6875,-0.3405 2.198669,-0.400009c0.955048,-0.111176 1.413696,-0.14122 2.29834,-0.105835c1.325745,0.05304 2.245987,0.210983 2.717987,0.313507c0.987228,0.214447 1.511307,0.353058 2.525009,0.848328c1.112411,0.543488 1.643814,0.967316 2.194656,1.400009c0.572495,0.449707 1.132492,0.952667 1.677002,1.496994c0.55452,0.554337 1.091354,1.141083 1.587006,1.766998c0.988663,1.248489 1.413712,1.915894 1.791992,2.597336c0.750717,1.352402 1.018051,2.086731 1.250671,2.82933c0.235153,0.750656 0.456268,1.531387 0.578674,3.181335c0.063934,0.861816 0.024216,1.753494 -0.084,2.653503c-0.110092,0.915527 -0.30275,1.83461 -0.588013,2.734497c-0.287476,0.906845 -0.599609,1.8358 -1.661331,3.445328c-0.537323,0.814575 -1.219269,1.551743 -1.9785,2.238007c-0.788788,0.712982 -1.693375,1.369904 -2.689499,1.985992c-1.052643,0.651047 -2.203979,1.290634 -4.832001,2.442673c-1.434143,0.628677 -2.969086,1.206238 -4.559998,1.781998c-1.622437,0.587158 -3.270737,1.14267 -4.919998,1.673996c-1.624146,0.523224 -3.208344,1.019836 -6.186661,1.877335c-1.348633,0.38829 -2.605545,0.728256 -3.772507,1.033508c-1.079803,0.282455 -2.081055,0.53154 -3.007492,0.754501c-0.85527,0.205841 -1.646927,0.386871 -3.053345,0.71199c-0.625122,0.144501 -1.200241,0.279007 -1.724991,0.404999c-0.47522,0.114105 -0.900375,0.218552 -1.275009,0.315002c-0.325317,0.083755 -0.604156,0.146881 -1,0.279999c-0.125107,0.042068 -0.209808,0.094177 -0.188995,0.136505c0.041656,0.084702 0.22963,0.136887 0.477005,0.235504c0.342941,0.136719 0.797562,0.297958 2.045334,0.794662c0.814423,0.324203 1.741043,0.709518 2.767502,1.143005c1.113632,0.470291 2.296158,0.979324 3.532486,1.520996c1.278717,0.560242 2.584946,1.133194 5.200012,2.335999c1.291458,0.594009 2.553238,1.192108 3.78299,1.781998c1.194214,0.572845 2.342743,1.133194 3.44101,1.673996c1.043686,0.513931 2.024231,1.002197 3.776001,1.877335c0.761261,0.38031 1.448959,0.724731 2.071487,1.033508c0.562836,0.279175 1.073563,0.530594 1.540512,0.754501c0.42746,0.204971 0.822144,0.395279 1.554657,0.71199c0.343704,0.148605 0.680603,0.283234 1.009506,0.4095c0.320465,0.123016 0.635925,0.237518 0.946503,0.346512c0.305771,0.107315 0.609253,0.209534 1.210663,0.41066c0.300308,0.100433 0.603256,0.200958 0.908997,0.309006c0.312958,0.110596 0.633881,0.22966 0.962997,0.362991c0.343628,0.139206 0.70401,0.287643 1.461334,0.661331c0.412491,0.203537 0.837021,0.434128 1.276505,0.676498c0.452576,0.249588 0.911179,0.510681 1.375504,0.775513c0.466675,0.266174 0.929535,0.536392 1.847992,1.047989c0.444,0.247314 0.880646,0.482635 1.309509,0.709503c0.420486,0.222443 0.835327,0.438309 1.652664,0.852661c0.402679,0.204147 1.606689,0.799576 2.395493,1.204514c0.769821,0.395187 1.515335,0.767441 2.475677,1.399994c0.574326,0.378296 1.236084,1.004227 1.845322,1.429337c0.84108,0.586884 1.551697,0.716858 2.540009,1.138657c0.630051,0.268906 1.571243,0.7733 2.447998,1.098679c0.920471,0.341599 2.068909,0.587967 2.464005,-0.102676c0.429398,-0.75061 0.035995,-1.763992 0.035995,-2.664169c0,-0.785156 -0.007858,-1.769287 0.057159,-2.47583c0.085266,-0.926544 0.216324,-1.681274 0.389511,-2.521332c0.185898,-0.901688 0.418503,-1.828201 0.720001,-2.735992c0.295105,-0.88855 0.65506,-1.727921 0.972,-2.556c0.154953,-0.404861 0.569122,-1.603424 0.689331,-2.405334c0.167114,-1.114883 0.417099,-1.889267 -0.112,-2.865341c-0.425064,-0.784149 -1.130661,-1.120148 -2.137329,-1.254669c-0.71138,-0.095062 -1.487946,-0.082565 -2.244003,-0.084c-1.424057,-0.002701 -2.056458,0.059662 -3.001343,0.498672c-0.685837,0.318649 -1.433319,0.778397 -2.231995,1.223999c-0.764053,0.426285 -1.747955,0.852127 -2.389328,1.231995c-0.810043,0.479782 -1.481186,1.368179 -1.762665,1.749344c-0.626678,0.848602 -0.937286,1.309784 -1.53418,2.235825c-0.281998,0.437515 -1.138214,1.817612 -1.352661,2.558838c-0.203979,0.705048 -0.28215,1.706924 -0.415161,2.563339c-0.145508,0.936951 -0.228149,1.409058 -0.363342,2.316666c-0.208145,1.397293 -0.273575,2.09903 -0.283997,3.286667c-0.005875,0.669296 0,1.434662 0,2.231995c0,0.765335 -0.031479,1.960541 0,2.895996c0.028595,0.849625 0.681381,1.533218 1.254669,1.921341c0.694824,0.470398 1.751175,0.394943 2.782669,0.277328c0.771896,-0.088013 1.284958,-0.399109 2.390656,-1.100159c0.481842,-0.305496 0.991623,-0.655823 2.072006,-1.414001c0.549866,-0.38588 1.086319,-0.769836 1.595993,-1.144501c1.281555,-0.942062 1.932465,-1.394409 2.584,-2.180008c0.496521,-0.598679 0.988464,-1.486938 1.305344,-2.025162c0.352661,-0.598999 1.114899,-1.92215 1.514664,-2.608673c0.397583,-0.682785 0.782639,-1.34642 1.164001,-1.963501c0.657852,-1.064499 1.213043,-1.779526 1.75267,-2.453156c0.60437,-0.754456 0.892822,-1.515259 1.0625,-2.125c0.256805,-0.922852 0.178421,-2.466187 0.520828,-2.4375c0.887222,0.07431 0,1.958328 0,2.51033c0,0.947998 0,1.589996 0,2.893326c0,0.79834 -0.000504,1.711838 0,2.459167c0.000671,0.992844 -0.201462,2.217697 0.610672,2.574173c0.816315,0.358307 1.50148,-0.859741 1.689331,-1.393829c0.320923,-0.912415 0.432358,-1.56485 1,-2.726837c0.268845,-0.550339 0.813873,-1.617569 0.995499,-2.216003c0.291168,-0.959412 0.388565,-1.596436 0.651825,-2.770493c0.196625,-0.876907 0.719711,-2.030075 1.531845,-1.829834c0.768372,0.189453 0.518768,1.442322 0.520828,2.305664c0.002258,0.945007 0.032776,1.638214 0.085327,2.389999c0.076645,1.096329 0.135651,1.797363 0.198669,2.58667c0.068283,0.855362 0.141342,1.754654 0.216003,2.675995c0.074661,0.921326 0.14801,1.820618 0.216003,2.675995c0.118484,1.490585 0.161743,2.088562 0.231323,3.022171c0.052002,0.697708 0.130997,1.599869 0.274002,2.729828c0.060272,0.476318 0.204102,1.523987 0.278671,2.072006c0.147507,1.083969 0.342194,2.499008 0.414673,3.185333c0.092102,0.872223 0.51033,0.428833 0.972,-0.02533c0.709656,-0.698105 1.110168,-1.672348 1.403488,-2.306503c0.497894,-1.076447 0.654602,-1.71965 0.929504,-2.382996c0.409073,-0.987091 0.915176,-1.875137 1.190994,-2.386505c0.289459,-0.536652 0.891525,-1.630112 1.178665,-2.167999c0.753265,-1.411102 1.079132,-2.110123 1.309357,-2.664001c0.318176,-0.765457 0.760071,-1.756149 1.237305,-2.653336c0.270233,-0.508057 0.558594,-1.033218 1.162689,-2.074661c0.287445,-0.495544 0.831482,-2.505264 1.638824,-2.274002c0.908356,0.260208 0.346832,1.587265 0.487823,2.362c0.149719,0.822601 0.322113,1.633209 0.490662,3.039993c0.072174,0.602539 0.12796,1.578323 0.250671,2.848007c0.051056,0.528198 0.115509,1.102875 0.258667,2.341339c0.07373,0.637939 0.150085,1.270569 0.222015,1.885498c0.187897,1.606277 0.191864,2.389084 0.377991,3.334503c0.184937,0.939285 0.37088,1.859192 1.274658,2.324326c0.805359,0.41449 1.5578,-0.299057 2.033356,-1.052338c0.446198,-0.706802 1.040741,-1.092163 1.909485,-1.732498c0.778076,-0.573502 1.044952,-1.175659 1.393158,-1.896835c0.506622,-1.049286 1.015686,-1.747635 1.538666,-2.393326c0.65744,-0.811691 1.128632,-1.374893 1.463684,-2.153503c0.420959,-0.978271 0.991547,-1.715561 1.382507,-1.073837c0.503876,0.827072 0.545868,1.469269 0.979156,2.416672c0.293793,0.642395 0.80249,1.726028 0.93866,2.388c0.165283,0.803513 0.227417,2.112061 0.282684,2.703995c0.062012,0.664063 0.131195,1.382019 0.203979,2.136002c0.074524,0.772018 0.151245,1.543823 0.29068,3.015991c0.118958,1.255859 0.176025,2.187531 0.247986,2.810669c0.027435,0.237488 0.032379,-0.52002 0.121338,-1.366669c0.117615,-1.119446 0.193756,-1.604034 0.372009,-2.725327c0.100159,-0.630142 0.220398,-1.299637 0.361511,-2.003998c0.147949,-0.738388 0.506348,-2.294159 0.725159,-3.102493c0.226257,-0.835831 0.486389,-1.696701 0.791992,-2.581497c0.319305,-0.9245 0.688873,-1.881302 1.115997,-2.869507c0.449615,-1.040237 1.535614,-3.245224 2.176514,-4.41066c0.666687,-1.212311 1.388306,-2.43428 2.155487,-3.6465c0.76593,-1.210236 1.556061,-2.380936 2.37149,-3.484512c0.781403,-1.057495 2.322083,-2.886429 3.080017,-3.605164c0.688751,-0.653137 1.376587,-1.189072 2.056488,-1.604996c0.631195,-0.386124 1.268402,-0.674728 1.894501,-0.88501c0.602905,-0.202499 1.812286,-0.443604 2.412842,-0.52533c0.594238,-0.080856 1.182312,-0.134201 1.757996,-0.17099c0.559021,-0.035721 1.098602,-0.053497 1.614014,-0.063004c0.487305,-0.008987 1.362,-0.009552 1.742645,-0.008835c0.344666,0.000656 0.65741,0.001862 0.942017,0.010498c0.260742,0.007904 0.50235,0.016205 0.725983,0.046494c0.621948,0.084259 1.463562,0.350815 2.018005,0.818848c0.661499,0.558395 1.206604,1.473328 1.55835,2.123993c0.342712,0.633926 0.778076,1.742996 1.041656,2.479172c0.309082,0.863235 0.705322,1.526169 1.149323,2.270157l0.517334,0.917343l0.3125,0.791656" id="svg_14" stroke-linecap="null" stroke-linejoin="null" stroke-dasharray="null" stroke-width="5" stroke="#000000" fill="none"/>
 </g>
</svg>